<svg width="568" height="173" viewBox="0 0 568 173" fill="none" xmlns="http://www.w3.org/2000/svg">
<path d="M403.96 120H389.596L365.572 83.628V120H351.208V61.032H365.572L389.596 97.572V61.032H403.96V120Z" fill="#7C3AED"/>
<path d="M428.912 119.656C424.429 119.656 420.384 118.699 416.776 116.786C413.223 114.873 410.407 112.139 408.33 108.586C406.307 105.033 405.296 100.878 405.296 96.122C405.296 91.4207 406.335 87.2933 408.412 83.74C410.489 80.132 413.332 77.3713 416.94 75.458C420.548 73.5447 424.593 72.588 429.076 72.588C433.559 72.588 437.604 73.5447 441.212 75.458C444.82 77.3713 447.663 80.132 449.74 83.74C451.817 87.2933 452.856 91.4207 452.856 96.122C452.856 100.823 451.79 104.978 449.658 108.586C447.581 112.139 444.711 114.873 441.048 116.786C437.44 118.699 433.395 119.656 428.912 119.656ZM428.912 107.52C431.591 107.52 433.859 106.536 435.718 104.568C437.631 102.6 438.588 99.7847 438.588 96.122C438.588 92.4593 437.659 89.644 435.8 87.676C433.996 85.708 431.755 84.724 429.076 84.724C426.343 84.724 424.074 85.708 422.27 87.676C420.466 89.5893 419.564 92.4047 419.564 96.122C419.564 99.7847 420.439 102.6 422.188 104.568C423.992 106.536 426.233 107.52 428.912 107.52Z" fill="#7C3AED"/>
<path d="M526.57 72.998L514.844 119H496.804L490.408 91.12L483.766 119H465.808L454.164 72.998H470.154L475.32 103.502L482.126 72.998H499.346L506.398 103.584L511.482 72.998H526.57Z" fill="#FBBF24"/>
<path opacity="0.1" d="M524.628 44.3175C535.239 47.3872 544.587 47.2953 545.508 44.1121C546.429 40.9289 538.574 35.8599 527.963 32.7902C517.352 29.7205 508.004 29.8125 507.083 32.9956C506.162 36.1788 514.017 41.2478 524.628 44.3175Z" fill="black"/>
<path d="M496.654 25.1727L529.819 24.8273L557.678 42.8273L524.512 43.1727L496.654 25.1727Z" fill="url(#paint0_linear_17_675)"/>
<path opacity="0.5" d="M503.67 26.803L529.075 28.9478L551.7 40.6986L528.519 30.869L503.67 26.803Z" fill="#F59E0B"/>
<path d="M525.462 41.4357C536.072 44.5054 545.42 44.4134 546.341 41.2302C547.262 38.0471 539.407 32.9781 528.797 29.9084C518.186 26.8387 508.838 26.9306 507.917 30.1138C506.996 33.297 514.851 38.3659 525.462 41.4357Z" fill="#F59E0B"/>
<path d="M525.212 43.0855C535.823 46.1552 545.171 46.0633 546.092 42.8801C547.013 39.6969 539.158 34.6279 528.547 31.5582C517.937 28.4885 508.588 28.5805 507.667 31.7636C506.747 34.9468 514.602 40.0158 525.212 43.0855Z" fill="#FBBF24"/>
<path d="M525.212 44.0855C535.823 47.1552 545.171 47.0633 546.092 43.8801C547.013 40.6969 539.158 35.6279 528.547 32.5582C517.937 29.4885 508.588 29.5805 507.667 32.7636C506.747 35.9468 514.602 41.0158 525.212 44.0855Z" fill="#FBBF24"/>
<path d="M524.463 47.158C535.212 50.2678 544.672 50.2083 545.593 47.0251C546.514 43.842 538.547 38.7405 527.798 35.6308C517.049 32.521 507.588 32.5805 506.667 35.7636C505.747 38.9468 513.714 44.0483 524.463 47.158Z" fill="#FBBF24"/>
<path d="M524.926 45.0028C535.695 48.1182 545.171 48.0632 546.092 44.8801C547.013 41.6969 539.03 36.5909 528.261 33.4755C517.493 30.3601 508.017 30.4151 507.096 33.5982C506.175 36.7814 514.158 41.8874 524.926 45.0028Z" fill="#FBBF24"/>
<path d="M524.212 49.0855C534.823 52.1552 544.171 52.0633 545.092 48.8801C546.013 45.6969 538.158 40.6279 527.547 37.5582C516.937 34.4885 507.588 34.5805 506.667 37.7636C505.747 40.9468 513.602 46.0158 524.212 49.0855Z" fill="#CE9A17"/>
<path d="M545.882 41L545.151 54.3216" stroke="#FBBF24" stroke-width="2" stroke-linecap="round"/>
<path d="M544.362 60.6969C546.219 61.2341 548.16 60.1644 548.697 58.3075C549.234 56.4507 548.164 54.5099 546.308 53.9727C544.451 53.4355 542.51 54.5053 541.973 56.3621C541.436 58.219 542.505 60.1597 544.362 60.6969Z" fill="#FBBF24"/>
<path opacity="0.8" d="M544.311 59.5558L541.5 67.5" stroke="#F59E0B" stroke-width="0.8"/>
<path opacity="0.8" d="M543.32 59.5558L540.51 67.5" stroke="#F59E0B" stroke-width="0.8"/>
<path opacity="0.8" d="M545.32 59.5558L542.51 67.5" stroke="#F59E0B" stroke-width="0.8"/>
<path opacity="0.8" d="M543.32 59.5558L540.51 67.5" stroke="#F59E0B" stroke-width="0.8"/>
<path opacity="0.8" d="M543.047 59.3186L538.047 65.3186M545 60L544 67.5M545.494 59.4834L547.5 67.5M546.462 59.2328L549.547 67.3186" stroke="#F59E0B" stroke-width="0.8"/>
<path opacity="0.8" d="M542.057 59.3186L537.057 65.3186M544.01 60L543.01 67.5M544.504 59.4834L546.51 67.5M545.472 59.2328L548.557 67.3186" stroke="#F59E0B" stroke-width="0.8"/>
<path opacity="0.8" d="M544.057 59.3186L539.057 65.3186M546.01 60L545.01 67.5M546.504 59.4834L548.51 67.5M547.472 59.2328L550.557 67.3186" stroke="#F59E0B" stroke-width="0.8"/>
<path opacity="0.8" d="M542.057 59.3186L537.057 65.3186M544.01 60L543.01 67.5M544.504 59.4834L546.51 67.5M545.472 59.2328L548.557 67.3186" stroke="#F59E0B" stroke-width="0.8"/>
<path opacity="0.8" d="M547 59L552.033 64.7379" stroke="#F59E0B" stroke-width="0.8"/>
<path opacity="0.8" d="M546.01 59L551.042 64.7379" stroke="#F59E0B" stroke-width="0.8"/>
<path opacity="0.8" d="M548.01 59L553.042 64.7379" stroke="#F59E0B" stroke-width="0.8"/>
<path opacity="0.8" d="M546.01 59L551.042 64.7379" stroke="#F59E0B" stroke-width="0.8"/>
<path d="M356.031 125.781C356.448 125.865 357.021 126.115 357.75 126.531C358.479 126.927 359.208 127.385 359.938 127.906C360.688 128.406 361.344 128.906 361.906 129.406C362.469 129.885 362.802 130.229 362.906 130.438C362.99 130.646 363.021 131.031 363 131.594C362.979 132.156 362.917 132.844 362.812 133.656C362.708 134.448 362.573 135.323 362.406 136.281C362.24 137.24 362.052 138.208 361.844 139.188C361.635 140.146 361.406 141.083 361.156 142C360.927 142.896 360.688 143.688 360.438 144.375C360.333 144.708 360.104 145.073 359.75 145.469C359.396 145.865 358.979 146.26 358.5 146.656C358.021 147.031 357.51 147.385 356.969 147.719C356.448 148.052 355.948 148.333 355.469 148.562C355.01 148.792 354.594 148.948 354.219 149.031C353.865 149.115 353.625 149.094 353.5 148.969C353.375 148.844 353.24 148.448 353.094 147.781C352.969 147.094 352.844 146.24 352.719 145.219C352.594 144.177 352.479 143.021 352.375 141.75C352.271 140.458 352.177 139.146 352.094 137.812C352.01 136.479 351.938 135.177 351.875 133.906C351.833 132.615 351.802 131.458 351.781 130.438C351.781 129.396 351.802 128.531 351.844 127.844C351.885 127.135 351.958 126.708 352.062 126.562C352.146 126.458 352.354 126.354 352.688 126.25C353.042 126.146 353.427 126.052 353.844 125.969C354.281 125.885 354.708 125.823 355.125 125.781C355.542 125.74 355.844 125.74 356.031 125.781ZM355.844 129.75C355.698 129.854 355.594 130.177 355.531 130.719C355.469 131.24 355.417 131.875 355.375 132.625C355.354 133.354 355.344 134.135 355.344 134.969C355.344 135.802 355.333 136.562 355.312 137.25C355.271 139.042 355.25 140.458 355.25 141.5C355.271 142.521 355.292 143.292 355.312 143.812C355.354 144.312 355.406 144.635 355.469 144.781C355.531 144.906 355.615 144.969 355.719 144.969C355.802 144.969 355.938 144.906 356.125 144.781C356.333 144.656 356.552 144.5 356.781 144.312C357.01 144.125 357.229 143.927 357.438 143.719C357.646 143.49 357.792 143.292 357.875 143.125C357.958 142.958 358.062 142.635 358.188 142.156C358.312 141.656 358.438 141.083 358.562 140.438C358.688 139.771 358.812 139.073 358.938 138.344C359.062 137.594 359.167 136.885 359.25 136.219C359.354 135.531 359.427 134.927 359.469 134.406C359.531 133.865 359.562 133.479 359.562 133.25C359.542 132.812 359.365 132.365 359.031 131.906C358.698 131.448 358.312 131.042 357.875 130.688C357.458 130.333 357.042 130.062 356.625 129.875C356.229 129.688 355.969 129.646 355.844 129.75ZM366.719 139.969C367.052 139.844 367.427 139.708 367.844 139.562C368.281 139.396 368.698 139.25 369.094 139.125C369.49 138.979 369.844 138.854 370.156 138.75C370.469 138.646 370.698 138.562 370.844 138.5C370.823 138.271 370.792 138.01 370.75 137.719C370.729 137.406 370.698 137.115 370.656 136.844C370.615 136.552 370.562 136.302 370.5 136.094C370.438 135.885 370.375 135.76 370.312 135.719C370.146 135.656 369.865 135.604 369.469 135.562C369.094 135.5 368.698 135.51 368.281 135.594C367.885 135.677 367.521 135.833 367.188 136.062C366.854 136.292 366.667 136.656 366.625 137.156C366.583 137.49 366.573 137.906 366.594 138.406C366.615 138.906 366.656 139.427 366.719 139.969ZM373.5 140.469C373.479 140.51 373.229 140.594 372.75 140.719C372.271 140.844 371.698 140.979 371.031 141.125C370.365 141.25 369.656 141.385 368.906 141.531C368.156 141.656 367.51 141.76 366.969 141.844C367.073 142.677 367.198 143.427 367.344 144.094C367.49 144.74 367.615 145.146 367.719 145.312C367.823 145.458 367.958 145.594 368.125 145.719C368.271 145.823 368.448 145.927 368.656 146.031C368.885 146.115 369.156 146.177 369.469 146.219C369.698 146.281 369.917 146.198 370.125 145.969C370.292 145.76 370.438 145.396 370.562 144.875C370.708 144.354 370.781 143.531 370.781 142.406C371.427 142.302 371.927 142.24 372.281 142.219C372.656 142.198 372.927 142.198 373.094 142.219C373.302 142.24 373.427 142.271 373.469 142.312C373.49 142.375 373.49 142.531 373.469 142.781C373.448 143.031 373.396 143.344 373.312 143.719C373.25 144.073 373.167 144.469 373.062 144.906C372.979 145.323 372.875 145.729 372.75 146.125C372.625 146.5 372.49 146.844 372.344 147.156C372.198 147.448 372.042 147.656 371.875 147.781C371.375 148.156 370.75 148.344 370 148.344C369.25 148.323 368.51 148.219 367.781 148.031C367.052 147.823 366.396 147.583 365.812 147.312C365.229 147.021 364.865 146.781 364.719 146.594C364.615 146.469 364.521 146.156 364.438 145.656C364.354 145.135 364.281 144.51 364.219 143.781C364.177 143.052 364.146 142.25 364.125 141.375C364.104 140.5 364.115 139.646 364.156 138.812C364.219 137.979 364.302 137.208 364.406 136.5C364.531 135.792 364.698 135.219 364.906 134.781C365.219 134.156 365.729 133.646 366.438 133.25C367.146 132.854 367.896 132.583 368.688 132.438C369.479 132.292 370.229 132.271 370.938 132.375C371.667 132.479 372.208 132.708 372.562 133.062C372.771 133.271 372.958 133.688 373.125 134.312C373.292 134.917 373.396 135.656 373.438 136.531C373.438 136.615 373.448 136.854 373.469 137.25C373.49 137.646 373.5 138.073 373.5 138.531C373.521 138.969 373.531 139.385 373.531 139.781C373.531 140.177 373.521 140.406 373.5 140.469ZM383.062 132.469C383.271 132.594 383.479 132.823 383.688 133.156C383.917 133.469 384.115 133.844 384.281 134.281C384.469 134.719 384.615 135.188 384.719 135.688C384.823 136.167 384.875 136.625 384.875 137.062C384.875 137.375 384.833 137.812 384.75 138.375C384.688 138.917 384.594 139.521 384.469 140.188C384.344 140.833 384.208 141.51 384.062 142.219C383.917 142.906 383.771 143.542 383.625 144.125C383.5 144.708 383.385 145.208 383.281 145.625C383.177 146.021 383.104 146.26 383.062 146.344C382.958 146.594 382.865 146.812 382.781 147C382.719 147.167 382.635 147.292 382.531 147.375C382.302 147.542 382.01 147.667 381.656 147.75C381.302 147.812 380.938 147.854 380.562 147.875C380.188 147.896 379.823 147.896 379.469 147.875C379.135 147.833 378.875 147.781 378.688 147.719C378.604 147.698 378.51 147.677 378.406 147.656C378.323 147.615 378.229 147.573 378.125 147.531C377.917 147.885 377.677 148.208 377.406 148.5C377.135 148.771 376.885 148.885 376.656 148.844C376.573 148.823 376.479 148.479 376.375 147.812C376.292 147.146 376.198 146.271 376.094 145.188C375.99 144.083 375.885 142.833 375.781 141.438C375.677 140.042 375.583 138.615 375.5 137.156C375.417 135.677 375.344 134.229 375.281 132.812C375.219 131.396 375.167 130.135 375.125 129.031C375.104 127.906 375.104 126.99 375.125 126.281C375.146 125.552 375.198 125.156 375.281 125.094C375.365 125.031 375.552 125.083 375.844 125.25C376.156 125.396 376.49 125.625 376.844 125.938C377.198 126.229 377.521 126.583 377.812 127C378.125 127.417 378.333 127.844 378.438 128.281C378.5 128.615 378.542 129.188 378.562 130C378.604 130.812 378.625 131.771 378.625 132.875C379.542 132.521 380.385 132.292 381.156 132.188C381.948 132.083 382.583 132.177 383.062 132.469ZM381.719 137.062C381.719 136.729 381.667 136.406 381.562 136.094C381.458 135.76 381.333 135.479 381.188 135.25C381.042 135 380.885 134.812 380.719 134.688C380.552 134.562 380.406 134.521 380.281 134.562C380.052 134.604 379.833 134.667 379.625 134.75C379.417 134.812 379.24 134.875 379.094 134.938C378.906 135.021 378.75 135.094 378.625 135.156C378.604 136.385 378.573 137.635 378.531 138.906C378.51 140.177 378.5 141.365 378.5 142.469C378.5 143.01 378.51 143.49 378.531 143.906C378.552 144.302 378.562 144.552 378.562 144.656C378.625 145.156 378.76 145.51 378.969 145.719C379.031 145.76 379.125 145.823 379.25 145.906C379.396 145.969 379.542 146.031 379.688 146.094C379.854 146.135 380.01 146.167 380.156 146.188C380.302 146.188 380.427 146.146 380.531 146.062C380.552 146.042 380.594 145.812 380.656 145.375C380.74 144.917 380.823 144.365 380.906 143.719C380.99 143.073 381.073 142.375 381.156 141.625C381.26 140.854 381.354 140.146 381.438 139.5C381.521 138.833 381.583 138.271 381.625 137.812C381.688 137.354 381.719 137.104 381.719 137.062ZM393.344 132.281C393.385 132.344 393.448 132.635 393.531 133.156C393.615 133.677 393.698 134.323 393.781 135.094C393.885 135.865 393.979 136.698 394.062 137.594C394.167 138.49 394.26 139.344 394.344 140.156C394.448 140.969 394.531 141.698 394.594 142.344C394.656 142.99 394.708 143.427 394.75 143.656C394.812 144.031 394.885 144.448 394.969 144.906C395.052 145.344 395.125 145.771 395.188 146.188C395.25 146.583 395.292 146.927 395.312 147.219C395.354 147.51 395.344 147.688 395.281 147.75C395.24 147.812 395.073 147.833 394.781 147.812C394.49 147.771 394.167 147.708 393.812 147.625C393.479 147.521 393.156 147.406 392.844 147.281C392.552 147.135 392.365 147 392.281 146.875C392.198 146.771 392.115 146.615 392.031 146.406C391.969 146.198 391.885 145.833 391.781 145.312C391.552 145.625 391.302 145.958 391.031 146.312C390.781 146.646 390.531 146.958 390.281 147.25C390.031 147.521 389.802 147.74 389.594 147.906C389.385 148.073 389.229 148.156 389.125 148.156C388.958 148.156 388.708 147.99 388.375 147.656C388.042 147.302 387.708 146.906 387.375 146.469C387.042 146.031 386.74 145.615 386.469 145.219C386.198 144.823 386.052 144.562 386.031 144.438C385.99 144.312 385.969 143.969 385.969 143.406C385.99 142.844 386.01 142.219 386.031 141.531C386.073 140.823 386.115 140.125 386.156 139.438C386.198 138.729 386.24 138.167 386.281 137.75C386.323 137.333 386.365 136.875 386.406 136.375C386.469 135.854 386.531 135.375 386.594 134.938C386.656 134.479 386.708 134.083 386.75 133.75C386.812 133.417 386.865 133.219 386.906 133.156C386.948 133.094 387.062 133.062 387.25 133.062C387.458 133.042 387.667 133.052 387.875 133.094C388.104 133.115 388.312 133.167 388.5 133.25C388.688 133.312 388.812 133.396 388.875 133.5C388.917 133.583 388.938 133.854 388.938 134.312C388.958 134.75 388.969 135.292 388.969 135.938C388.969 136.562 388.969 137.25 388.969 138C388.969 138.729 388.958 139.417 388.938 140.062C388.938 140.688 388.927 141.229 388.906 141.688C388.906 142.125 388.906 142.385 388.906 142.469C388.906 142.635 389 142.958 389.188 143.438C389.396 143.917 389.604 144.375 389.812 144.812L391.438 142.875C391.417 142.5 391.396 142.021 391.375 141.438C391.375 140.854 391.365 140.24 391.344 139.594C391.323 138.948 391.302 138.292 391.281 137.625C391.26 136.958 391.25 136.354 391.25 135.812C391.25 135.271 391.25 134.823 391.25 134.469C391.25 134.115 391.26 133.906 391.281 133.844C391.344 133.719 391.469 133.552 391.656 133.344C391.844 133.135 392.052 132.938 392.281 132.75C392.51 132.562 392.719 132.417 392.906 132.312C393.115 132.208 393.26 132.198 393.344 132.281ZM404.438 150C404.396 150.125 404.271 150.323 404.062 150.594C403.854 150.865 403.604 151.146 403.312 151.438C403.021 151.729 402.729 151.99 402.438 152.219C402.146 152.448 401.906 152.594 401.719 152.656C401.302 152.781 400.854 152.75 400.375 152.562C399.917 152.396 399.469 152.167 399.031 151.875C398.615 151.583 398.25 151.281 397.938 150.969C397.625 150.677 397.427 150.458 397.344 150.312C397.281 150.167 397.219 149.969 397.156 149.719C397.115 149.469 397.083 149.219 397.062 148.969C397.042 148.719 397.042 148.51 397.062 148.344C397.104 148.156 397.177 148.062 397.281 148.062C397.385 148.062 397.625 148.167 398 148.375C398.396 148.562 398.802 148.76 399.219 148.969C399.656 149.177 400.062 149.344 400.438 149.469C400.812 149.594 401.042 149.573 401.125 149.406C401.208 149.26 401.281 148.854 401.344 148.188C401.427 147.5 401.521 146.667 401.625 145.688C401.583 145.688 401.542 145.698 401.5 145.719C401.479 145.719 401.448 145.719 401.406 145.719C401.219 145.781 400.958 145.812 400.625 145.812C400.292 145.812 399.938 145.792 399.562 145.75C399.208 145.708 398.854 145.635 398.5 145.531C398.167 145.406 397.896 145.25 397.688 145.062C397.604 144.979 397.51 144.854 397.406 144.688C397.323 144.5 397.26 144.26 397.219 143.969C397.156 143.844 397.052 143.49 396.906 142.906C396.76 142.302 396.615 141.625 396.469 140.875C396.323 140.104 396.188 139.333 396.062 138.562C395.958 137.792 395.927 137.177 395.969 136.719C395.99 136.26 396.073 135.792 396.219 135.312C396.365 134.812 396.531 134.344 396.719 133.906C396.927 133.469 397.146 133.094 397.375 132.781C397.604 132.448 397.833 132.219 398.062 132.094C398.562 131.844 399.188 131.792 399.938 131.938C400.688 132.083 401.49 132.365 402.344 132.781C402.365 132.573 402.458 132.344 402.625 132.094C402.792 131.844 402.979 131.625 403.188 131.438C403.417 131.229 403.646 131.083 403.875 131C404.104 130.896 404.281 130.885 404.406 130.969C404.469 131.01 404.521 131.302 404.562 131.844C404.604 132.365 404.635 133.052 404.656 133.906C404.698 134.74 404.719 135.698 404.719 136.781C404.74 137.844 404.74 138.948 404.719 140.094C404.719 141.219 404.708 142.333 404.688 143.438C404.688 144.542 404.667 145.552 404.625 146.469C404.604 147.385 404.573 148.156 404.531 148.781C404.51 149.406 404.479 149.812 404.438 150ZM402.25 135.156C402.125 135.073 401.979 134.99 401.812 134.906C401.667 134.823 401.5 134.74 401.312 134.656C401.125 134.573 400.917 134.5 400.688 134.438C400.583 134.396 400.438 134.438 400.25 134.562C400.083 134.688 399.906 134.865 399.719 135.094C399.552 135.323 399.406 135.604 399.281 135.938C399.156 136.25 399.094 136.583 399.094 136.938C399.094 136.979 399.104 137.177 399.125 137.531C399.146 137.885 399.177 138.312 399.219 138.812C399.26 139.312 399.302 139.854 399.344 140.438C399.385 141.021 399.427 141.562 399.469 142.062C399.531 142.562 399.583 142.99 399.625 143.344C399.667 143.677 399.698 143.854 399.719 143.875C399.802 143.958 399.917 144 400.062 144C400.229 144 400.385 143.979 400.531 143.938C400.698 143.896 400.844 143.844 400.969 143.781C401.094 143.719 401.188 143.667 401.25 143.625C401.521 143.438 401.688 143.073 401.75 142.531C401.792 142.49 401.812 142.375 401.812 142.188C401.875 140.812 401.938 139.573 402 138.469C402.062 137.344 402.146 136.24 402.25 135.156ZM422.531 126.562C422.531 126.604 422.458 126.854 422.312 127.312C422.188 127.75 422.01 128.323 421.781 129.031C421.552 129.719 421.281 130.5 420.969 131.375C420.677 132.25 420.365 133.156 420.031 134.094C419.698 135.01 419.354 135.917 419 136.812C418.667 137.708 418.354 138.51 418.062 139.219C418.021 140.656 417.969 142 417.906 143.25C417.844 144.5 417.781 145.594 417.719 146.531C417.656 147.469 417.594 148.219 417.531 148.781C417.469 149.323 417.417 149.604 417.375 149.625C417.271 149.708 417.104 149.677 416.875 149.531C416.646 149.406 416.406 149.229 416.156 149C415.927 148.771 415.708 148.521 415.5 148.25C415.312 147.979 415.188 147.75 415.125 147.562C415.104 147.479 415.073 147.219 415.031 146.781C414.99 146.323 414.938 145.719 414.875 144.969C414.812 144.198 414.74 143.302 414.656 142.281C414.594 141.26 414.531 140.135 414.469 138.906C414.073 138.031 413.656 137 413.219 135.812C412.844 134.792 412.417 133.552 411.938 132.094C411.479 130.635 411.01 128.958 410.531 127.062C410.531 126.875 410.646 126.688 410.875 126.5C411.104 126.292 411.385 126.115 411.719 125.969C412.052 125.823 412.406 125.708 412.781 125.625C413.156 125.542 413.49 125.531 413.781 125.594C413.865 125.719 414.021 126.198 414.25 127.031C414.333 127.385 414.438 127.833 414.562 128.375C414.708 128.896 414.865 129.552 415.031 130.344C415.198 131.115 415.385 132.021 415.594 133.062C415.823 134.104 416.083 135.312 416.375 136.688C416.688 135.354 416.969 134.177 417.219 133.156C417.469 132.135 417.688 131.25 417.875 130.5C418.083 129.729 418.26 129.083 418.406 128.562C418.573 128.021 418.708 127.573 418.812 127.219C419.062 126.385 419.26 125.896 419.406 125.75C419.552 125.667 419.792 125.635 420.125 125.656C420.479 125.656 420.823 125.708 421.156 125.812C421.51 125.896 421.823 126.01 422.094 126.156C422.365 126.281 422.51 126.417 422.531 126.562ZM428.719 131.906C428.865 132.031 429 132.271 429.125 132.625C429.271 132.979 429.396 133.406 429.5 133.906C429.604 134.406 429.698 134.948 429.781 135.531C429.865 136.115 429.938 136.688 430 137.25C430.062 137.812 430.104 138.344 430.125 138.844C430.167 139.323 430.198 139.719 430.219 140.031C430.24 140.406 430.25 140.802 430.25 141.219C430.271 141.615 430.271 142 430.25 142.375C430.25 142.729 430.229 143.052 430.188 143.344C430.167 143.635 430.125 143.854 430.062 144C429.938 144.312 429.719 144.531 429.406 144.656C429.115 144.76 428.781 144.833 428.406 144.875C428.219 144.896 427.896 144.906 427.438 144.906C427 144.885 426.521 144.865 426 144.844C425.5 144.802 425.021 144.76 424.562 144.719C424.104 144.677 423.76 144.635 423.531 144.594C423.073 144.49 422.74 144.354 422.531 144.188C422.344 144.021 422.156 143.781 421.969 143.469C421.906 143.344 421.854 143.031 421.812 142.531C421.771 142.01 421.74 141.396 421.719 140.688C421.719 139.958 421.729 139.177 421.75 138.344C421.771 137.51 421.802 136.719 421.844 135.969C421.906 135.219 421.969 134.562 422.031 134C422.115 133.438 422.219 133.062 422.344 132.875C422.552 132.583 422.906 132.312 423.406 132.062C423.927 131.812 424.396 131.615 424.812 131.469C425.021 131.406 425.292 131.365 425.625 131.344C425.979 131.302 426.344 131.302 426.719 131.344C427.115 131.365 427.49 131.427 427.844 131.531C428.198 131.615 428.49 131.74 428.719 131.906ZM426.969 141.594C427.01 141.51 427.052 141.26 427.094 140.844C427.156 140.406 427.198 139.885 427.219 139.281C427.26 138.677 427.281 138.031 427.281 137.344C427.302 136.656 427.312 136.021 427.312 135.438C427.312 134.854 427.292 134.365 427.25 133.969C427.208 133.552 427.156 133.312 427.094 133.25C426.99 133.167 426.833 133.135 426.625 133.156C426.438 133.156 426.24 133.188 426.031 133.25C425.823 133.292 425.635 133.354 425.469 133.438C425.302 133.5 425.188 133.562 425.125 133.625C424.854 133.854 424.708 134.229 424.688 134.75C424.688 134.896 424.667 135.312 424.625 136C424.604 136.667 424.594 137.396 424.594 138.188C424.594 138.958 424.604 139.677 424.625 140.344C424.667 141.01 424.74 141.417 424.844 141.562C424.948 141.708 425.094 141.823 425.281 141.906C425.49 141.969 425.698 142 425.906 142C426.135 142 426.344 141.969 426.531 141.906C426.74 141.823 426.885 141.719 426.969 141.594ZM438.875 132.281C438.917 132.344 438.979 132.635 439.062 133.156C439.146 133.677 439.229 134.323 439.312 135.094C439.417 135.865 439.51 136.698 439.594 137.594C439.698 138.49 439.792 139.344 439.875 140.156C439.979 140.969 440.062 141.698 440.125 142.344C440.188 142.99 440.24 143.427 440.281 143.656C440.344 144.031 440.417 144.448 440.5 144.906C440.583 145.344 440.656 145.771 440.719 146.188C440.781 146.583 440.823 146.927 440.844 147.219C440.885 147.51 440.875 147.688 440.812 147.75C440.771 147.812 440.604 147.833 440.312 147.812C440.021 147.771 439.698 147.708 439.344 147.625C439.01 147.521 438.688 147.406 438.375 147.281C438.083 147.135 437.896 147 437.812 146.875C437.729 146.771 437.646 146.615 437.562 146.406C437.5 146.198 437.417 145.833 437.312 145.312C437.083 145.625 436.833 145.958 436.562 146.312C436.312 146.646 436.062 146.958 435.812 147.25C435.562 147.521 435.333 147.74 435.125 147.906C434.917 148.073 434.76 148.156 434.656 148.156C434.49 148.156 434.24 147.99 433.906 147.656C433.573 147.302 433.24 146.906 432.906 146.469C432.573 146.031 432.271 145.615 432 145.219C431.729 144.823 431.583 144.562 431.562 144.438C431.521 144.312 431.5 143.969 431.5 143.406C431.521 142.844 431.542 142.219 431.562 141.531C431.604 140.823 431.646 140.125 431.688 139.438C431.729 138.729 431.771 138.167 431.812 137.75C431.854 137.333 431.896 136.875 431.938 136.375C432 135.854 432.062 135.375 432.125 134.938C432.188 134.479 432.24 134.083 432.281 133.75C432.344 133.417 432.396 133.219 432.438 133.156C432.479 133.094 432.594 133.062 432.781 133.062C432.99 133.042 433.198 133.052 433.406 133.094C433.635 133.115 433.844 133.167 434.031 133.25C434.219 133.312 434.344 133.396 434.406 133.5C434.448 133.583 434.469 133.854 434.469 134.312C434.49 134.75 434.5 135.292 434.5 135.938C434.5 136.562 434.5 137.25 434.5 138C434.5 138.729 434.49 139.417 434.469 140.062C434.469 140.688 434.458 141.229 434.438 141.688C434.438 142.125 434.438 142.385 434.438 142.469C434.438 142.635 434.531 142.958 434.719 143.438C434.927 143.917 435.135 144.375 435.344 144.812L436.969 142.875C436.948 142.5 436.927 142.021 436.906 141.438C436.906 140.854 436.896 140.24 436.875 139.594C436.854 138.948 436.833 138.292 436.812 137.625C436.792 136.958 436.781 136.354 436.781 135.812C436.781 135.271 436.781 134.823 436.781 134.469C436.781 134.115 436.792 133.906 436.812 133.844C436.875 133.719 437 133.552 437.188 133.344C437.375 133.135 437.583 132.938 437.812 132.75C438.042 132.562 438.25 132.417 438.438 132.312C438.646 132.208 438.792 132.198 438.875 132.281ZM448.875 131.969C449.042 132.073 449.198 132.281 449.344 132.594C449.51 132.885 449.656 133.229 449.781 133.625C449.927 134 450.042 134.406 450.125 134.844C450.229 135.281 450.312 135.688 450.375 136.062C450.458 136.438 450.51 136.76 450.531 137.031C450.552 137.281 450.552 137.438 450.531 137.5C450.49 137.583 450.365 137.667 450.156 137.75C449.969 137.833 449.688 137.927 449.312 138.031C448.938 138.135 448.417 138.25 447.75 138.375C447.708 137.229 447.625 136.365 447.5 135.781C447.375 135.177 447.24 134.75 447.094 134.5C446.927 134.208 446.75 134.062 446.562 134.062C446.375 134.146 446.208 134.25 446.062 134.375C445.917 134.479 445.792 134.594 445.688 134.719C445.562 134.865 445.448 135.021 445.344 135.188C445.302 135.25 445.26 135.396 445.219 135.625C445.177 135.854 445.135 136.198 445.094 136.656C445.094 136.802 445.083 137.104 445.062 137.562C445.062 138.021 445.052 138.552 445.031 139.156C445.031 139.76 445.021 140.396 445 141.062C445 141.729 444.99 142.354 444.969 142.938C444.969 143.5 444.958 143.979 444.938 144.375C444.938 144.771 444.927 145 444.906 145.062C444.865 145.167 444.76 145.312 444.594 145.5C444.427 145.688 444.24 145.865 444.031 146.031C443.823 146.177 443.625 146.302 443.438 146.406C443.25 146.49 443.125 146.479 443.062 146.375C443 146.312 442.938 146.042 442.875 145.562C442.812 145.083 442.74 144.5 442.656 143.812C442.594 143.104 442.521 142.333 442.438 141.5C442.354 140.667 442.281 139.865 442.219 139.094C442.156 138.323 442.104 137.635 442.062 137.031C442.021 136.406 441.99 135.958 441.969 135.688C441.948 135.292 441.927 134.854 441.906 134.375C441.885 133.896 441.865 133.448 441.844 133.031C441.844 132.594 441.844 132.219 441.844 131.906C441.865 131.573 441.906 131.375 441.969 131.312C442.01 131.25 442.146 131.24 442.375 131.281C442.625 131.302 442.885 131.365 443.156 131.469C443.448 131.552 443.719 131.667 443.969 131.812C444.219 131.958 444.385 132.094 444.469 132.219C444.531 132.323 444.594 132.479 444.656 132.688C445.052 132.479 445.427 132.292 445.781 132.125C446.156 131.938 446.51 131.802 446.844 131.719C447.198 131.635 447.542 131.615 447.875 131.656C448.208 131.677 448.542 131.781 448.875 131.969ZM458 149.969C457.958 149.865 457.938 149.49 457.938 148.844C457.938 148.198 457.938 147.385 457.938 146.406C457.958 145.427 457.979 144.333 458 143.125C458.042 141.896 458.073 140.656 458.094 139.406C458.135 138.135 458.177 136.906 458.219 135.719C458.26 134.51 458.292 133.438 458.312 132.5C458.354 131.562 458.385 130.802 458.406 130.219C458.427 129.615 458.448 129.292 458.469 129.25C458.49 129.167 458.583 128.958 458.75 128.625C458.917 128.292 459.104 127.948 459.312 127.594C459.542 127.219 459.771 126.896 460 126.625C460.229 126.333 460.427 126.198 460.594 126.219C460.656 126.24 460.708 126.656 460.75 127.469C460.812 128.26 460.865 129.281 460.906 130.531C460.969 131.781 461.01 133.167 461.031 134.688C461.073 136.188 461.104 137.656 461.125 139.094C461.167 140.51 461.198 141.802 461.219 142.969C461.24 144.115 461.26 144.958 461.281 145.5C461.948 145.562 462.615 145.615 463.281 145.656C463.969 145.698 464.583 145.75 465.125 145.812C465.667 145.854 466.104 145.896 466.438 145.938C466.792 145.979 466.979 146.01 467 146.031C467.062 146.115 467.146 146.312 467.25 146.625C467.375 146.917 467.49 147.24 467.594 147.594C467.698 147.927 467.771 148.24 467.812 148.531C467.875 148.823 467.865 149 467.781 149.062C465.385 149.5 463.531 149.792 462.219 149.938C460.906 150.083 459.938 150.156 459.312 150.156C458.583 150.156 458.146 150.094 458 149.969ZM470.156 139.969C470.49 139.844 470.865 139.708 471.281 139.562C471.719 139.396 472.135 139.25 472.531 139.125C472.927 138.979 473.281 138.854 473.594 138.75C473.906 138.646 474.135 138.562 474.281 138.5C474.26 138.271 474.229 138.01 474.188 137.719C474.167 137.406 474.135 137.115 474.094 136.844C474.052 136.552 474 136.302 473.938 136.094C473.875 135.885 473.812 135.76 473.75 135.719C473.583 135.656 473.302 135.604 472.906 135.562C472.531 135.5 472.135 135.51 471.719 135.594C471.323 135.677 470.958 135.833 470.625 136.062C470.292 136.292 470.104 136.656 470.062 137.156C470.021 137.49 470.01 137.906 470.031 138.406C470.052 138.906 470.094 139.427 470.156 139.969ZM476.938 140.469C476.917 140.51 476.667 140.594 476.188 140.719C475.708 140.844 475.135 140.979 474.469 141.125C473.802 141.25 473.094 141.385 472.344 141.531C471.594 141.656 470.948 141.76 470.406 141.844C470.51 142.677 470.635 143.427 470.781 144.094C470.927 144.74 471.052 145.146 471.156 145.312C471.26 145.458 471.396 145.594 471.562 145.719C471.708 145.823 471.885 145.927 472.094 146.031C472.323 146.115 472.594 146.177 472.906 146.219C473.135 146.281 473.354 146.198 473.562 145.969C473.729 145.76 473.875 145.396 474 144.875C474.146 144.354 474.219 143.531 474.219 142.406C474.865 142.302 475.365 142.24 475.719 142.219C476.094 142.198 476.365 142.198 476.531 142.219C476.74 142.24 476.865 142.271 476.906 142.312C476.927 142.375 476.927 142.531 476.906 142.781C476.885 143.031 476.833 143.344 476.75 143.719C476.688 144.073 476.604 144.469 476.5 144.906C476.417 145.323 476.312 145.729 476.188 146.125C476.062 146.5 475.927 146.844 475.781 147.156C475.635 147.448 475.479 147.656 475.312 147.781C474.812 148.156 474.188 148.344 473.438 148.344C472.688 148.323 471.948 148.219 471.219 148.031C470.49 147.823 469.833 147.583 469.25 147.312C468.667 147.021 468.302 146.781 468.156 146.594C468.052 146.469 467.958 146.156 467.875 145.656C467.792 145.135 467.719 144.51 467.656 143.781C467.615 143.052 467.583 142.25 467.562 141.375C467.542 140.5 467.552 139.646 467.594 138.812C467.656 137.979 467.74 137.208 467.844 136.5C467.969 135.792 468.135 135.219 468.344 134.781C468.656 134.156 469.167 133.646 469.875 133.25C470.583 132.854 471.333 132.583 472.125 132.438C472.917 132.292 473.667 132.271 474.375 132.375C475.104 132.479 475.646 132.708 476 133.062C476.208 133.271 476.396 133.688 476.562 134.312C476.729 134.917 476.833 135.656 476.875 136.531C476.875 136.615 476.885 136.854 476.906 137.25C476.927 137.646 476.938 138.073 476.938 138.531C476.958 138.969 476.969 139.385 476.969 139.781C476.969 140.177 476.958 140.406 476.938 140.469ZM487.125 132.562C487.25 132.708 487.365 132.865 487.469 133.031C487.573 133.177 487.667 133.385 487.75 133.656C487.833 133.906 487.896 134.24 487.938 134.656C488 135.073 488.031 135.615 488.031 136.281C488.031 137.344 488 138.417 487.938 139.5C487.896 140.562 487.854 141.5 487.812 142.312C487.792 143.042 487.771 143.719 487.75 144.344C487.729 144.969 487.708 145.521 487.688 146C487.667 146.458 487.635 146.823 487.594 147.094C487.573 147.365 487.552 147.51 487.531 147.531C487.448 147.594 487.312 147.573 487.125 147.469C486.958 147.344 486.771 147.188 486.562 147C486.375 146.812 486.198 146.615 486.031 146.406C485.865 146.198 485.76 146.031 485.719 145.906C485.719 145.802 485.688 145.5 485.625 145C485.125 145.292 484.573 145.5 483.969 145.625C483.365 145.729 482.76 145.771 482.156 145.75C481.573 145.708 481.031 145.594 480.531 145.406C480.031 145.219 479.656 144.969 479.406 144.656C479.302 144.531 479.208 144.344 479.125 144.094C479.062 143.844 479 143.562 478.938 143.25C478.896 142.917 478.854 142.573 478.812 142.219C478.771 141.844 478.74 141.5 478.719 141.188C478.677 140.375 478.781 139.677 479.031 139.094C479.281 138.49 479.74 138.042 480.406 137.75C480.698 137.625 481.083 137.562 481.562 137.562C482.062 137.542 482.552 137.562 483.031 137.625C483.531 137.667 483.979 137.729 484.375 137.812C484.771 137.875 485.021 137.927 485.125 137.969C485.042 136.906 484.979 135.99 484.938 135.219C484.896 134.427 484.812 133.917 484.688 133.688C484.583 133.542 484.458 133.396 484.312 133.25C484.188 133.146 484.021 133.031 483.812 132.906C483.604 132.781 483.354 132.688 483.062 132.625C482.833 132.583 482.625 132.677 482.438 132.906C482.271 133.115 482.115 133.49 481.969 134.031C481.844 134.552 481.771 135.354 481.75 136.438C481.021 136.458 480.458 136.458 480.062 136.438C479.688 136.396 479.406 136.354 479.219 136.312C478.99 136.271 478.854 136.219 478.812 136.156C478.771 136.073 478.792 135.771 478.875 135.25C478.958 134.708 479.073 134.125 479.219 133.5C479.385 132.875 479.573 132.281 479.781 131.719C480.01 131.156 480.25 130.802 480.5 130.656C481 130.365 481.594 130.26 482.281 130.344C482.99 130.427 483.677 130.604 484.344 130.875C485.01 131.146 485.604 131.448 486.125 131.781C486.646 132.115 486.979 132.375 487.125 132.562ZM485.188 141.688C485.188 141.583 485.198 141.448 485.219 141.281C485.24 141.094 485.25 140.906 485.25 140.719C485.25 140.531 485.24 140.354 485.219 140.188C485.219 140.021 485.198 139.896 485.156 139.812C485.094 139.688 484.906 139.583 484.594 139.5C484.302 139.417 483.969 139.365 483.594 139.344C483.219 139.302 482.865 139.292 482.531 139.312C482.198 139.312 481.969 139.354 481.844 139.438C481.677 139.542 481.552 139.688 481.469 139.875C481.406 140.062 481.365 140.354 481.344 140.75C481.344 140.938 481.354 141.135 481.375 141.344C481.396 141.552 481.417 141.76 481.438 141.969C481.479 142.156 481.521 142.323 481.562 142.469C481.625 142.615 481.688 142.708 481.75 142.75C481.896 142.854 482.146 142.948 482.5 143.031C482.875 143.094 483.25 143.115 483.625 143.094C484 143.052 484.344 142.927 484.656 142.719C484.969 142.51 485.146 142.167 485.188 141.688ZM496.812 131.969C496.979 132.073 497.135 132.281 497.281 132.594C497.448 132.885 497.594 133.229 497.719 133.625C497.865 134 497.979 134.406 498.062 134.844C498.167 135.281 498.25 135.688 498.312 136.062C498.396 136.438 498.448 136.76 498.469 137.031C498.49 137.281 498.49 137.438 498.469 137.5C498.427 137.583 498.302 137.667 498.094 137.75C497.906 137.833 497.625 137.927 497.25 138.031C496.875 138.135 496.354 138.25 495.688 138.375C495.646 137.229 495.562 136.365 495.438 135.781C495.312 135.177 495.177 134.75 495.031 134.5C494.865 134.208 494.688 134.062 494.5 134.062C494.312 134.146 494.146 134.25 494 134.375C493.854 134.479 493.729 134.594 493.625 134.719C493.5 134.865 493.385 135.021 493.281 135.188C493.24 135.25 493.198 135.396 493.156 135.625C493.115 135.854 493.073 136.198 493.031 136.656C493.031 136.802 493.021 137.104 493 137.562C493 138.021 492.99 138.552 492.969 139.156C492.969 139.76 492.958 140.396 492.938 141.062C492.938 141.729 492.927 142.354 492.906 142.938C492.906 143.5 492.896 143.979 492.875 144.375C492.875 144.771 492.865 145 492.844 145.062C492.802 145.167 492.698 145.312 492.531 145.5C492.365 145.688 492.177 145.865 491.969 146.031C491.76 146.177 491.562 146.302 491.375 146.406C491.188 146.49 491.062 146.479 491 146.375C490.938 146.312 490.875 146.042 490.812 145.562C490.75 145.083 490.677 144.5 490.594 143.812C490.531 143.104 490.458 142.333 490.375 141.5C490.292 140.667 490.219 139.865 490.156 139.094C490.094 138.323 490.042 137.635 490 137.031C489.958 136.406 489.927 135.958 489.906 135.688C489.885 135.292 489.865 134.854 489.844 134.375C489.823 133.896 489.802 133.448 489.781 133.031C489.781 132.594 489.781 132.219 489.781 131.906C489.802 131.573 489.844 131.375 489.906 131.312C489.948 131.25 490.083 131.24 490.312 131.281C490.562 131.302 490.823 131.365 491.094 131.469C491.385 131.552 491.656 131.667 491.906 131.812C492.156 131.958 492.323 132.094 492.406 132.219C492.469 132.323 492.531 132.479 492.594 132.688C492.99 132.479 493.365 132.292 493.719 132.125C494.094 131.938 494.448 131.802 494.781 131.719C495.135 131.635 495.479 131.615 495.812 131.656C496.146 131.677 496.479 131.781 496.812 131.969ZM508.438 135.906C508.438 136.24 508.396 136.719 508.312 137.344C508.25 137.969 508.156 138.656 508.031 139.406C507.906 140.135 507.771 140.896 507.625 141.688C507.5 142.458 507.365 143.167 507.219 143.812C507.094 144.458 506.979 145 506.875 145.438C506.792 145.875 506.74 146.115 506.719 146.156C506.677 146.219 506.562 146.26 506.375 146.281C506.208 146.281 506.01 146.26 505.781 146.219C505.573 146.177 505.375 146.115 505.188 146.031C505.021 145.948 504.917 145.844 504.875 145.719C504.854 145.635 504.844 145.344 504.844 144.844C504.865 144.344 504.885 143.75 504.906 143.062C504.948 142.354 504.99 141.604 505.031 140.812C505.073 140 505.115 139.25 505.156 138.562C505.219 137.854 505.26 137.25 505.281 136.75C505.323 136.25 505.344 135.948 505.344 135.844C505.344 135.469 505.302 135.115 505.219 134.781C505.156 134.427 505.073 134.125 504.969 133.875C504.865 133.625 504.74 133.438 504.594 133.312C504.469 133.167 504.354 133.115 504.25 133.156C503.979 133.198 503.75 133.271 503.562 133.375C503.375 133.458 503.219 133.552 503.094 133.656C502.948 133.781 502.833 133.927 502.75 134.094C502.729 134.135 502.688 134.26 502.625 134.469C502.583 134.677 502.562 134.917 502.562 135.188C502.562 135.271 502.562 135.573 502.562 136.094C502.562 136.594 502.552 137.198 502.531 137.906C502.531 138.615 502.521 139.385 502.5 140.219C502.5 141.031 502.49 141.792 502.469 142.5C502.469 143.188 502.458 143.781 502.438 144.281C502.417 144.781 502.396 145.062 502.375 145.125C502.333 145.25 502.229 145.427 502.062 145.656C501.896 145.865 501.708 146.062 501.5 146.25C501.292 146.438 501.094 146.583 500.906 146.688C500.719 146.771 500.594 146.75 500.531 146.625C500.469 146.562 500.406 146.26 500.344 145.719C500.281 145.156 500.208 144.479 500.125 143.688C500.062 142.875 499.99 142 499.906 141.062C499.823 140.104 499.75 139.188 499.688 138.312C499.625 137.438 499.573 136.646 499.531 135.938C499.49 135.229 499.458 134.719 499.438 134.406C499.417 133.969 499.396 133.479 499.375 132.938C499.354 132.375 499.333 131.854 499.312 131.375C499.312 130.875 499.312 130.448 499.312 130.094C499.333 129.719 499.375 129.49 499.438 129.406C499.479 129.323 499.615 129.302 499.844 129.344C500.094 129.385 500.354 129.469 500.625 129.594C500.917 129.698 501.188 129.833 501.438 130C501.688 130.146 501.854 130.292 501.938 130.438C501.979 130.562 502.031 130.708 502.094 130.875C502.156 131.021 502.208 131.271 502.25 131.625C502.604 131.417 502.99 131.229 503.406 131.062C503.823 130.875 504.229 130.74 504.625 130.656C505.042 130.552 505.438 130.521 505.812 130.562C506.188 130.583 506.521 130.688 506.812 130.875C507 131.021 507.188 131.271 507.375 131.625C507.583 131.979 507.76 132.396 507.906 132.875C508.073 133.354 508.198 133.865 508.281 134.406C508.385 134.927 508.438 135.427 508.438 135.906ZM513.5 135.562C513.542 135.667 513.562 136 513.562 136.562C513.583 137.104 513.583 137.771 513.562 138.562C513.562 139.333 513.542 140.167 513.5 141.062C513.458 141.938 513.406 142.771 513.344 143.562C513.302 144.333 513.25 145 513.188 145.562C513.125 146.104 513.062 146.427 513 146.531C512.812 146.823 512.531 147.01 512.156 147.094C511.781 147.156 511.51 147.167 511.344 147.125C511.26 147.125 511.167 146.885 511.062 146.406C510.979 145.927 510.896 145.323 510.812 144.594C510.729 143.865 510.656 143.073 510.594 142.219C510.531 141.365 510.479 140.552 510.438 139.781C510.396 138.99 510.375 138.302 510.375 137.719C510.375 137.135 510.396 136.76 510.438 136.594C510.5 136.323 510.677 136.083 510.969 135.875C511.281 135.667 511.604 135.51 511.938 135.406C512.292 135.302 512.615 135.26 512.906 135.281C513.219 135.281 513.417 135.375 513.5 135.562ZM513.656 130.5C513.74 130.667 513.771 130.896 513.75 131.188C513.75 131.479 513.719 131.781 513.656 132.094C513.594 132.406 513.51 132.708 513.406 133C513.302 133.292 513.198 133.521 513.094 133.688C512.885 133.979 512.573 134.167 512.156 134.25C511.76 134.312 511.469 134.323 511.281 134.281C511.135 134.26 510.99 134.167 510.844 134C510.698 133.812 510.573 133.594 510.469 133.344C510.365 133.073 510.292 132.781 510.25 132.469C510.208 132.156 510.219 131.865 510.281 131.594C510.344 131.323 510.542 131.083 510.875 130.875C511.208 130.646 511.562 130.479 511.938 130.375C512.312 130.25 512.667 130.198 513 130.219C513.333 130.219 513.552 130.312 513.656 130.5ZM524.812 135.906C524.812 136.24 524.771 136.719 524.688 137.344C524.625 137.969 524.531 138.656 524.406 139.406C524.281 140.135 524.146 140.896 524 141.688C523.875 142.458 523.74 143.167 523.594 143.812C523.469 144.458 523.354 145 523.25 145.438C523.167 145.875 523.115 146.115 523.094 146.156C523.052 146.219 522.938 146.26 522.75 146.281C522.583 146.281 522.385 146.26 522.156 146.219C521.948 146.177 521.75 146.115 521.562 146.031C521.396 145.948 521.292 145.844 521.25 145.719C521.229 145.635 521.219 145.344 521.219 144.844C521.24 144.344 521.26 143.75 521.281 143.062C521.323 142.354 521.365 141.604 521.406 140.812C521.448 140 521.49 139.25 521.531 138.562C521.594 137.854 521.635 137.25 521.656 136.75C521.698 136.25 521.719 135.948 521.719 135.844C521.719 135.469 521.677 135.115 521.594 134.781C521.531 134.427 521.448 134.125 521.344 133.875C521.24 133.625 521.115 133.438 520.969 133.312C520.844 133.167 520.729 133.115 520.625 133.156C520.354 133.198 520.125 133.271 519.938 133.375C519.75 133.458 519.594 133.552 519.469 133.656C519.323 133.781 519.208 133.927 519.125 134.094C519.104 134.135 519.062 134.26 519 134.469C518.958 134.677 518.938 134.917 518.938 135.188C518.938 135.271 518.938 135.573 518.938 136.094C518.938 136.594 518.927 137.198 518.906 137.906C518.906 138.615 518.896 139.385 518.875 140.219C518.875 141.031 518.865 141.792 518.844 142.5C518.844 143.188 518.833 143.781 518.812 144.281C518.792 144.781 518.771 145.062 518.75 145.125C518.708 145.25 518.604 145.427 518.438 145.656C518.271 145.865 518.083 146.062 517.875 146.25C517.667 146.438 517.469 146.583 517.281 146.688C517.094 146.771 516.969 146.75 516.906 146.625C516.844 146.562 516.781 146.26 516.719 145.719C516.656 145.156 516.583 144.479 516.5 143.688C516.438 142.875 516.365 142 516.281 141.062C516.198 140.104 516.125 139.188 516.062 138.312C516 137.438 515.948 136.646 515.906 135.938C515.865 135.229 515.833 134.719 515.812 134.406C515.792 133.969 515.771 133.479 515.75 132.938C515.729 132.375 515.708 131.854 515.688 131.375C515.688 130.875 515.688 130.448 515.688 130.094C515.708 129.719 515.75 129.49 515.812 129.406C515.854 129.323 515.99 129.302 516.219 129.344C516.469 129.385 516.729 129.469 517 129.594C517.292 129.698 517.562 129.833 517.812 130C518.062 130.146 518.229 130.292 518.312 130.438C518.354 130.562 518.406 130.708 518.469 130.875C518.531 131.021 518.583 131.271 518.625 131.625C518.979 131.417 519.365 131.229 519.781 131.062C520.198 130.875 520.604 130.74 521 130.656C521.417 130.552 521.812 130.521 522.188 130.562C522.562 130.583 522.896 130.688 523.188 130.875C523.375 131.021 523.562 131.271 523.75 131.625C523.958 131.979 524.135 132.396 524.281 132.875C524.448 133.354 524.573 133.865 524.656 134.406C524.76 134.927 524.812 135.427 524.812 135.906ZM534.562 150C534.521 150.125 534.396 150.323 534.188 150.594C533.979 150.865 533.729 151.146 533.438 151.438C533.146 151.729 532.854 151.99 532.562 152.219C532.271 152.448 532.031 152.594 531.844 152.656C531.427 152.781 530.979 152.75 530.5 152.562C530.042 152.396 529.594 152.167 529.156 151.875C528.74 151.583 528.375 151.281 528.062 150.969C527.75 150.677 527.552 150.458 527.469 150.312C527.406 150.167 527.344 149.969 527.281 149.719C527.24 149.469 527.208 149.219 527.188 148.969C527.167 148.719 527.167 148.51 527.188 148.344C527.229 148.156 527.302 148.062 527.406 148.062C527.51 148.062 527.75 148.167 528.125 148.375C528.521 148.562 528.927 148.76 529.344 148.969C529.781 149.177 530.188 149.344 530.562 149.469C530.938 149.594 531.167 149.573 531.25 149.406C531.333 149.26 531.406 148.854 531.469 148.188C531.552 147.5 531.646 146.667 531.75 145.688C531.708 145.688 531.667 145.698 531.625 145.719C531.604 145.719 531.573 145.719 531.531 145.719C531.344 145.781 531.083 145.812 530.75 145.812C530.417 145.812 530.062 145.792 529.688 145.75C529.333 145.708 528.979 145.635 528.625 145.531C528.292 145.406 528.021 145.25 527.812 145.062C527.729 144.979 527.635 144.854 527.531 144.688C527.448 144.5 527.385 144.26 527.344 143.969C527.281 143.844 527.177 143.49 527.031 142.906C526.885 142.302 526.74 141.625 526.594 140.875C526.448 140.104 526.312 139.333 526.188 138.562C526.083 137.792 526.052 137.177 526.094 136.719C526.115 136.26 526.198 135.792 526.344 135.312C526.49 134.812 526.656 134.344 526.844 133.906C527.052 133.469 527.271 133.094 527.5 132.781C527.729 132.448 527.958 132.219 528.188 132.094C528.688 131.844 529.312 131.792 530.062 131.938C530.812 132.083 531.615 132.365 532.469 132.781C532.49 132.573 532.583 132.344 532.75 132.094C532.917 131.844 533.104 131.625 533.312 131.438C533.542 131.229 533.771 131.083 534 131C534.229 130.896 534.406 130.885 534.531 130.969C534.594 131.01 534.646 131.302 534.688 131.844C534.729 132.365 534.76 133.052 534.781 133.906C534.823 134.74 534.844 135.698 534.844 136.781C534.865 137.844 534.865 138.948 534.844 140.094C534.844 141.219 534.833 142.333 534.812 143.438C534.812 144.542 534.792 145.552 534.75 146.469C534.729 147.385 534.698 148.156 534.656 148.781C534.635 149.406 534.604 149.812 534.562 150ZM532.375 135.156C532.25 135.073 532.104 134.99 531.938 134.906C531.792 134.823 531.625 134.74 531.438 134.656C531.25 134.573 531.042 134.5 530.812 134.438C530.708 134.396 530.562 134.438 530.375 134.562C530.208 134.688 530.031 134.865 529.844 135.094C529.677 135.323 529.531 135.604 529.406 135.938C529.281 136.25 529.219 136.583 529.219 136.938C529.219 136.979 529.229 137.177 529.25 137.531C529.271 137.885 529.302 138.312 529.344 138.812C529.385 139.312 529.427 139.854 529.469 140.438C529.51 141.021 529.552 141.562 529.594 142.062C529.656 142.562 529.708 142.99 529.75 143.344C529.792 143.677 529.823 143.854 529.844 143.875C529.927 143.958 530.042 144 530.188 144C530.354 144 530.51 143.979 530.656 143.938C530.823 143.896 530.969 143.844 531.094 143.781C531.219 143.719 531.312 143.667 531.375 143.625C531.646 143.438 531.812 143.073 531.875 142.531C531.917 142.49 531.938 142.375 531.938 142.188C532 140.812 532.062 139.573 532.125 138.469C532.188 137.344 532.271 136.24 532.375 135.156ZM539.125 142.938C539.188 143.104 539.219 143.323 539.219 143.594C539.219 143.844 539.188 144.115 539.125 144.406C539.062 144.677 538.979 144.948 538.875 145.219C538.792 145.469 538.698 145.677 538.594 145.844C538.51 145.969 538.396 146.073 538.25 146.156C538.104 146.24 537.948 146.302 537.781 146.344C537.615 146.365 537.458 146.375 537.312 146.375C537.167 146.375 537.052 146.375 536.969 146.375C536.844 146.354 536.708 146.26 536.562 146.094C536.438 145.927 536.323 145.729 536.219 145.5C536.135 145.25 536.073 144.99 536.031 144.719C535.99 144.427 536 144.156 536.062 143.906C536.125 143.656 536.302 143.438 536.594 143.25C536.885 143.062 537.198 142.917 537.531 142.812C537.885 142.708 538.219 142.667 538.531 142.688C538.844 142.688 539.042 142.771 539.125 142.938Z" fill="#FBBF24"/>
<path d="M147.468 71.752C153.153 71.752 157.663 73.474 160.998 76.918C164.387 80.362 166.082 85.1453 166.082 91.268V118H152.142V93.154C152.142 90.202 151.349 87.9333 149.764 86.348C148.233 84.708 146.101 83.888 143.368 83.888C140.635 83.888 138.475 84.708 136.89 86.348C135.359 87.9333 134.594 90.202 134.594 93.154V118H120.654V93.154C120.654 90.202 119.861 87.9333 118.276 86.348C116.745 84.708 114.613 83.888 111.88 83.888C109.147 83.888 106.987 84.708 105.402 86.348C103.871 87.9333 103.106 90.202 103.106 93.154V118H89.084V72.244H103.106V77.984C104.527 76.0707 106.386 74.5673 108.682 73.474C110.978 72.326 113.575 71.752 116.472 71.752C119.916 71.752 122.977 72.49 125.656 73.966C128.389 75.442 130.521 77.5467 132.052 80.28C133.637 77.7653 135.797 75.7153 138.53 74.13C141.263 72.5447 144.243 71.752 147.468 71.752ZM173.101 95.04C173.101 90.3387 173.975 86.2113 175.725 82.658C177.529 79.1047 179.961 76.3713 183.023 74.458C186.084 72.5447 189.501 71.588 193.273 71.588C196.498 71.588 199.313 72.244 201.719 73.556C204.179 74.868 206.065 76.59 207.377 78.722V72.244H221.399V118H207.377V111.522C206.01 113.654 204.097 115.376 201.637 116.688C199.231 118 196.416 118.656 193.191 118.656C189.473 118.656 186.084 117.699 183.023 115.786C179.961 113.818 177.529 111.057 175.725 107.504C173.975 103.896 173.101 99.7413 173.101 95.04ZM207.377 95.122C207.377 91.6233 206.393 88.8627 204.425 86.84C202.511 84.8173 200.161 83.806 197.373 83.806C194.585 83.806 192.207 84.8173 190.239 86.84C188.325 88.808 187.369 91.5413 187.369 95.04C187.369 98.5387 188.325 101.327 190.239 103.404C192.207 105.427 194.585 106.438 197.373 106.438C200.161 106.438 202.511 105.427 204.425 103.404C206.393 101.381 207.377 98.6207 207.377 95.122ZM257.045 106.11V118H249.911C244.827 118 240.864 116.77 238.021 114.31C235.178 111.795 233.757 107.723 233.757 102.092V83.888H228.181V72.244H233.757V61.092H247.779V72.244H256.963V83.888H247.779V102.256C247.779 103.623 248.107 104.607 248.763 105.208C249.419 105.809 250.512 106.11 252.043 106.11H257.045ZM307.987 94.384C307.987 95.696 307.905 97.0627 307.741 98.484H276.007C276.226 101.327 277.128 103.513 278.713 105.044C280.353 106.52 282.349 107.258 284.699 107.258C288.198 107.258 290.631 105.782 291.997 102.83H306.921C306.156 105.837 304.762 108.543 302.739 110.948C300.771 113.353 298.284 115.239 295.277 116.606C292.271 117.973 288.909 118.656 285.191 118.656C280.709 118.656 276.718 117.699 273.219 115.786C269.721 113.873 266.987 111.139 265.019 107.586C263.051 104.033 262.067 99.878 262.067 95.122C262.067 90.366 263.024 86.2113 264.937 82.658C266.905 79.1047 269.639 76.3713 273.137 74.458C276.636 72.5447 280.654 71.588 285.191 71.588C289.619 71.588 293.555 72.5173 296.999 74.376C300.443 76.2347 303.122 78.886 305.035 82.33C307.003 85.774 307.987 89.792 307.987 94.384ZM293.637 90.694C293.637 88.2887 292.817 86.3753 291.177 84.954C289.537 83.5327 287.487 82.822 285.027 82.822C282.677 82.822 280.681 83.5053 279.041 84.872C277.456 86.2387 276.472 88.1793 276.089 90.694H293.637ZM329.407 79.87C331.047 77.3553 333.097 75.3873 335.557 73.966C338.017 72.49 340.75 71.752 343.757 71.752V86.594H339.903C336.404 86.594 333.78 87.3593 332.031 88.89C330.281 90.366 329.407 92.99 329.407 96.762V118H315.385V72.244H329.407V79.87Z" fill="black"/>
<rect width="18.4449" height="67.5209" transform="translate(515.185 45.7217) rotate(14.7448)" fill="#FBBF24"/>
<path fill-rule="evenodd" clip-rule="evenodd" d="M129.516 21.9595C126.571 36.5512 121.829 43.1065 115.897 45.4739C109.965 47.8459 103.129 46.0179 96.2919 44.1852C91.5727 42.893 86.7572 41.5746 82.3637 41.4558C77.779 41.3293 73.5242 42.5052 69.929 46.2636C69.1004 47.1647 68.3853 48.6055 67.972 50.508C67.2955 53.0931 66.936 56.5926 66.8827 60.6862C66.4504 76.223 69.1763 100.563 67.3881 115.502C67.0263 118.934 66.3616 121.857 65.3848 124.024C64.4939 125.911 63.3924 127.203 61.878 127.573C60.6477 127.875 59.2055 127.558 57.3612 126.629C54.2543 125.042 50.5167 121.718 45.7537 116.283C41.586 111.524 38.0639 106.125 33.9878 101.251C27.6242 93.6202 20.9715 85.8936 13.6115 79.847C13.1216 79.4656 8.2359 77.6041 7.86961 78.0624C7.40803 78.5251 11.7462 81.1304 12.2361 81.5119C19.4978 87.4726 26.2362 95.7789 32.5008 103.303C35.1972 108.932 39.9606 113.202 43.0548 118.152C47.0533 124.548 52.8252 127.369 56.1257 129.038C58.4578 130.283 60.4564 130.926 62.1604 130.521C63.9069 130.868 66.1078 128.875 67.1917 127.052C69.6958 125.354 70.2 120.618 70.7181 116.157C73.3613 101.214 71.241 78.5245 70.7464 62.6798C70.806 58.7738 70.167 54.251 70.7522 51.7864C71.0848 50.3256 71.5228 49.0146 72.2628 48.3195C75.3028 45.0739 77.8093 44.7414 81.8207 44.8484C86.0233 44.9643 90.7769 46.0756 95.399 47.3171C102.622 49.2847 110.42 50.0209 116.728 47.4813C123.036 44.9382 132.318 38.5464 133.133 22.5397C133.304 21.9505 131.4 21.2201 130.824 21.1045C130.247 20.9889 129.592 21.3735 129.516 21.9595Z" fill="#FBBF24"/>
<path fill-rule="evenodd" clip-rule="evenodd" d="M131.629 21.9033C131.733 22.0498 131.945 22.4505 132.055 22.7838C132.703 24.4006 133.38 26.9203 133.603 27.6589C135.997 34.1776 138.023 41.4966 138.26 48.5573C138.28 49.1493 138.791 49.6121 139.383 49.591C140.075 49.5666 140.553 49.0695 140.533 48.4775C143.254 41.1554 139.792 33.2127 137.49 26.4991C137.168 25.7535 136.217 22.9408 135.568 21.2985C135.351 20.7074 135.295 21.0266 135.087 20.7222C135.648 19.9637 133.365 19.512 133.164 19.4084C132.759 19.1361 131.633 19.3711 131.041 19.4096C130.351 19.4537 129.13 19.493 128.352 19.884C126.697 20.6531 124.123 22.1137 122.577 23.1975C121.708 23.8194 120.23 24.6176 119.209 24.6181C115.36 24.6203 114.398 24.148 109.242 20.737C108.831 20.2744 108.135 20.1943 107.653 20.5615C107.171 20.9286 107.095 21.604 107.408 22.0711C111.938 27.4211 117.521 28.7639 122.604 27.0012C123.876 26.575 126.57 24.3672 128.994 22.9331C129.771 22.5201 130.452 22.1788 131.04 22.0033C131.236 21.9514 131.334 21.9168 131.531 21.9055C131.531 21.9032 131.629 21.8964 131.629 21.9033Z" fill="#FBBF24"/>
<defs>
<linearGradient id="paint0_linear_17_675" x1="499.307" y1="16" x2="6601.68" y2="1781.47" gradientUnits="userSpaceOnUse">
<stop stop-color="#FBBF24"/>
<stop offset="1" stop-color="#F59E0B"/>
</linearGradient>
</defs>
</svg>
