<svg width="204" height="157" viewBox="0 0 204 157" fill="none" xmlns="http://www.w3.org/2000/svg">
<path fill-rule="evenodd" clip-rule="evenodd" d="M129.516 24.9594C126.571 39.5512 121.829 46.1065 115.897 48.4738C109.965 50.8458 103.129 49.0179 96.2919 47.1852C91.5727 45.893 86.7572 44.5746 82.3637 44.4558C77.779 44.3293 73.5242 45.5052 69.929 49.2635C69.1004 50.1647 68.3853 51.6055 67.972 53.508C67.2955 56.0931 66.936 59.5925 66.8827 63.6862C66.4504 79.2229 69.1763 103.563 67.3881 118.502C67.0263 121.934 66.3616 124.857 65.3848 127.024C64.4939 128.911 63.3924 130.203 61.878 130.573C60.6477 130.875 59.2055 130.558 57.3612 129.629C54.2543 128.042 50.5167 124.718 45.7537 119.283C41.586 114.524 38.0639 109.125 33.9878 104.251C27.6242 96.6201 20.9715 88.8936 13.6115 82.847C13.1216 82.4655 8.2359 80.604 7.86961 81.0624C7.40803 81.5251 11.7462 84.1304 12.2361 84.5118C19.4978 90.4725 26.2362 98.7788 32.5008 106.302C35.1972 111.932 39.9606 116.202 43.0548 121.152C47.0533 127.548 52.8252 130.369 56.1257 132.038C58.4578 133.283 60.4564 133.926 62.1604 133.521C63.9069 133.868 66.1078 131.875 67.1917 130.052C69.6958 128.354 70.2 123.618 70.7181 119.157C73.3613 104.214 71.241 81.5245 70.7464 65.6798C70.806 61.7737 70.167 57.251 70.7522 54.7863C71.0848 53.3255 71.5228 52.0146 72.2628 51.3195C75.3028 48.0739 77.8093 47.7414 81.8207 47.8484C86.0233 47.9643 90.7769 49.0756 95.399 50.3171C102.622 52.2847 110.42 53.0209 116.728 50.4813C123.036 47.9382 132.318 41.5464 133.133 25.5396C133.304 24.9505 131.4 24.2201 130.824 24.1044C130.247 23.9888 129.592 24.3735 129.516 24.9594Z" fill="#FBBF24"/>
<path fill-rule="evenodd" clip-rule="evenodd" d="M131.629 24.9033C131.733 25.0498 131.945 25.4505 132.055 25.7838C132.703 27.4006 133.38 29.9203 133.603 30.6589C135.997 37.1776 138.023 44.4966 138.26 51.5573C138.28 52.1493 138.791 52.6121 139.383 52.591C140.075 52.5666 140.553 52.0695 140.533 51.4775C143.254 44.1554 139.792 36.2127 137.49 29.4991C137.168 28.7535 136.217 25.9408 135.568 24.2985C135.351 23.7074 135.295 24.0266 135.087 23.7222C135.648 22.9637 133.365 22.512 133.164 22.4084C132.759 22.1361 131.633 22.3711 131.041 22.4096C130.351 22.4537 129.13 22.493 128.352 22.884C126.697 23.6531 124.123 25.1137 122.577 26.1975C121.708 26.8194 120.23 27.6176 119.209 27.6181C115.36 27.6203 114.398 27.148 109.242 23.737C108.831 23.2744 108.135 23.1943 107.653 23.5615C107.171 23.9286 107.095 24.604 107.408 25.0711C111.938 30.4211 117.521 31.7639 122.604 30.0012C123.876 29.575 126.57 27.3672 128.994 25.9331C129.771 25.5201 130.452 25.1788 131.04 25.0033C131.236 24.9514 131.334 24.9168 131.531 24.9055C131.531 24.9032 131.629 24.8964 131.629 24.9033Z" fill="#FBBF24"/>
<path opacity="0.1" d="M160.113 72.3174C170.723 75.3872 180.071 75.2952 180.992 72.112C181.913 68.9288 174.058 63.8599 163.448 60.7902C152.837 57.7204 143.489 57.8124 142.568 60.9956C141.647 64.1787 149.502 69.2477 160.113 72.3174Z" fill="black"/>
<path d="M132.138 53.1727L165.304 52.8273L193.162 70.8273L159.997 71.1727L132.138 53.1727Z" fill="url(#paint0_linear_17_642)"/>
<path opacity="0.5" d="M139.155 54.803L164.559 56.9478L187.185 68.6986L164.003 58.869L139.155 54.803Z" fill="#F59E0B"/>
<path d="M160.946 69.4357C171.557 72.5054 180.905 72.4135 181.826 69.2303C182.747 66.0471 174.892 60.9782 164.281 57.9084C153.671 54.8387 144.323 54.9307 143.402 58.1139C142.481 61.297 150.336 66.366 160.946 69.4357Z" fill="#F59E0B"/>
<path d="M160.697 71.0855C171.307 74.1552 180.655 74.0633 181.576 70.8801C182.497 67.6969 174.642 62.6279 164.032 59.5582C153.421 56.4885 144.073 56.5805 143.152 59.7636C142.231 62.9468 150.086 68.0158 160.697 71.0855Z" fill="#FBBF24"/>
<path d="M160.697 72.0855C171.307 75.1552 180.655 75.0633 181.576 71.8801C182.497 68.6969 174.642 63.6279 164.032 60.5582C153.421 57.4885 144.073 57.5805 143.152 60.7636C142.231 63.9468 150.086 69.0158 160.697 72.0855Z" fill="#FBBF24"/>
<path d="M159.947 75.158C170.697 78.2678 180.157 78.2083 181.078 75.0251C181.999 71.842 174.031 66.7405 163.282 63.6308C152.533 60.521 143.073 60.5805 142.152 63.7636C141.231 66.9468 149.198 72.0483 159.947 75.158Z" fill="#FBBF24"/>
<path d="M160.411 73.0028C171.179 76.1182 180.655 76.0632 181.576 72.8801C182.497 69.6969 174.514 64.5909 163.746 61.4755C152.977 58.3601 143.501 58.4151 142.58 61.5982C141.66 64.7814 149.643 69.8874 160.411 73.0028Z" fill="#FBBF24"/>
<path d="M159.697 77.0855C170.307 80.1552 179.655 80.0633 180.576 76.8801C181.497 73.6969 173.642 68.6279 163.032 65.5582C152.421 62.4885 143.073 62.5805 142.152 65.7636C141.231 68.9468 149.086 74.0158 159.697 77.0855Z" fill="#CE9A17"/>
<path d="M181.366 69L180.635 82.3216" stroke="#FBBF24" stroke-width="2" stroke-linecap="round"/>
<path d="M179.847 88.6969C181.704 89.2341 183.644 88.1644 184.182 86.3075C184.719 84.4507 183.649 82.5099 181.792 81.9727C179.935 81.4355 177.995 82.5053 177.457 84.3621C176.92 86.219 177.99 88.1597 179.847 88.6969Z" fill="#FBBF24"/>
<path opacity="0.8" d="M179.795 87.5559L176.985 95.5" stroke="#F59E0B" stroke-width="0.8"/>
<path opacity="0.8" d="M178.805 87.5559L175.994 95.5" stroke="#F59E0B" stroke-width="0.8"/>
<path opacity="0.8" d="M180.805 87.5559L177.994 95.5" stroke="#F59E0B" stroke-width="0.8"/>
<path opacity="0.8" d="M178.805 87.5559L175.994 95.5" stroke="#F59E0B" stroke-width="0.8"/>
<path opacity="0.8" d="M178.532 87.3186L173.532 93.3186M180.485 88L179.485 95.5M180.979 87.4834L182.985 95.5M181.947 87.2328L185.032 95.3186" stroke="#F59E0B" stroke-width="0.8"/>
<path opacity="0.8" d="M177.542 87.3186L172.542 93.3186M179.494 88L178.494 95.5M179.988 87.4834L181.994 95.5M180.956 87.2328L184.041 95.3186" stroke="#F59E0B" stroke-width="0.8"/>
<path opacity="0.8" d="M179.542 87.3186L174.542 93.3186M181.494 88L180.494 95.5M181.988 87.4834L183.994 95.5M182.956 87.2328L186.041 95.3186" stroke="#F59E0B" stroke-width="0.8"/>
<path opacity="0.8" d="M177.542 87.3186L172.542 93.3186M179.494 88L178.494 95.5M179.988 87.4834L181.994 95.5M180.956 87.2328L184.041 95.3186" stroke="#F59E0B" stroke-width="0.8"/>
<path opacity="0.8" d="M182.485 87L187.517 92.7379" stroke="#F59E0B" stroke-width="0.8"/>
<path opacity="0.8" d="M181.494 87L186.527 92.7379" stroke="#F59E0B" stroke-width="0.8"/>
<path opacity="0.8" d="M183.494 87L188.527 92.7379" stroke="#F59E0B" stroke-width="0.8"/>
<path opacity="0.8" d="M181.494 87L186.527 92.7379" stroke="#F59E0B" stroke-width="0.8"/>
<path d="M147.855 74.47C153.575 74.47 158.113 76.2025 161.468 79.6675C164.878 83.1325 166.583 87.945 166.583 94.105V121H152.558V96.0025C152.558 93.0325 151.76 90.75 150.165 89.155C148.625 87.505 146.48 86.68 143.73 86.68C140.98 86.68 138.808 87.505 137.213 89.155C135.673 90.75 134.903 93.0325 134.903 96.0025V121H120.878V96.0025C120.878 93.0325 120.08 90.75 118.485 89.155C116.945 87.505 114.8 86.68 112.05 86.68C109.3 86.68 107.128 87.505 105.533 89.155C103.993 90.75 103.223 93.0325 103.223 96.0025V121H89.115V74.965H103.223V80.74C104.653 78.815 106.523 77.3025 108.833 76.2025C111.143 75.0475 113.755 74.47 116.67 74.47C120.135 74.47 123.215 75.2125 125.91 76.6975C128.66 78.1825 130.805 80.3 132.345 83.05C133.94 80.52 136.113 78.4575 138.863 76.8625C141.613 75.2675 144.61 74.47 147.855 74.47Z" fill="white"/>
<rect width="26.9998" height="11.4901" transform="matrix(1 2.38726e-05 -2.15439e-05 1 89.0002 74.4097)" fill="white"/>
<defs>
<linearGradient id="paint0_linear_17_642" x1="134.792" y1="44" x2="6237.17" y2="1809.47" gradientUnits="userSpaceOnUse">
<stop stop-color="#FBBF24"/>
<stop offset="1" stop-color="#F59E0B"/>
</linearGradient>
</defs>
</svg>
